# xmcd
#
# Track frame offsets:
#	150
#	14498
#	30098
#	48817
#	67279
#	83804
#	98065
#	118189
#	137240
#	155566
#	172176
#	186578
#	205983
#	220490
#	236601
#
# Disc length: 3335 seconds
#
# Revision: 6
# Processed by: cddbd v1.5.2PL0 Copyright (c) Steve Scherf et al.
# Submitted via: audiograbber 1.83.01
#
DISCID=dd0d050f
DTITLE=CHARTBUSTER - Cb60344
DYEAR=2005
DGENRE=KARAOKE
TTITLE0=Keith, Toby - Big Blue Note
TTITLE1=Strait, George - She Let Herself Go
TTITLE2=Twain, Shania - Shoes
TTITLE3=Bentley, Dierks - Domestic, Light And Cold
TTITLE4=Big and Rich - Comin' To Your City
TTITLE5=Trick Pony - Ain't Wastin' Good Whiskey On You
TTITLE6=Stricklin, Luke - American By God's Amazing Grace
TTITLE7=Adkins, Trace - Honky Tonk Badonkadonk
TTITLE8=Mcentire, Reba - You're Gonna Be (Always Loved By Me)
TTITLE9=Van Zant - Nobody Gonna Tell Me What To Do
TTITLE10=Johnson, Jamey - Dollar, The
TTITLE11=Sugarland - Just Might (Make Me Believe)
TTITLE12=Scott, Ray - My Kind Of Music
TTITLE13=Cross Canadian Ragweed - Fightin' For
TTITLE14=Dotson, Amber - I Ain't Your Mama
EXTD=MediaType: Karaoke CD+G Producer: Chartbuster
EXTT0=
EXTT1=
EXTT2=
EXTT3=
EXTT4=
EXTT5=
EXTT6=
EXTT7=
EXTT8=
EXTT9=
EXTT10=
EXTT11=
EXTT12=
EXTT13=
EXTT14=
PLAYORDER=
